<?xml version="1.0" encoding="UTF-8"?>
<!DOCTYPE svg PUBLIC "-//W3C//DTD SVG 1.1//EN" "http://www.w3.org/Graphics/SVG/1.1/DTD/svg11.dtd">
<!-- Creator: CorelDRAW 2020 (64 Bit) -->
<svg xmlns="http://www.w3.org/2000/svg" xml:space="preserve" width="2.6434mm" height="2.6434mm" version="1.1" style="shape-rendering:geometricPrecision; text-rendering:geometricPrecision; image-rendering:optimizeQuality; fill-rule:evenodd; clip-rule:evenodd"
viewBox="0 0 175.98 175.98"
 xmlns:xlink="http://www.w3.org/1999/xlink"
 xmlns:xodm="http://www.corel.com/coreldraw/odm/2003">
 <defs>
  <style type="text/css">
   <![CDATA[
    .fil0 {fill:#767676;fill-rule:nonzero}
   ]]>
  </style>
 </defs>
 <g id="Camada_x0020_1">
  <metadata id="CorelCorpID_0Corel-Layer"/>
  <g id="_728713424">
   <g id="XMLID_13_">
    <path id="XMLID_17_" class="fil0" d="M123.56 0l-71.13 0c-28.91,0 -52.43,23.52 -52.43,52.43l0 71.13c0,28.91 23.52,52.43 52.43,52.43l71.13 0c28.91,0 52.43,-23.52 52.43,-52.43l0 -71.13c0,-28.91 -23.52,-52.43 -52.43,-52.43zm34.73 123.56c0,19.18 -15.55,34.73 -34.73,34.73l-71.13 0c-19.18,0 -34.73,-15.55 -34.73,-34.73l0 -71.13c0,-19.18 15.55,-34.73 34.73,-34.73l71.13 0c19.18,0 34.73,15.55 34.73,34.73l0 71.13 0 0z"/>
    <path id="XMLID_81_" class="fil0" d="M87.99 42.47c-25.1,0 -45.52,20.42 -45.52,45.52 0,25.1 20.42,45.52 45.52,45.52 25.1,0 45.52,-20.42 45.52,-45.52 0,-25.1 -20.42,-45.52 -45.52,-45.52zm0 73.33c-15.36,0 -27.81,-12.46 -27.81,-27.81 0,-15.36 12.46,-27.81 27.81,-27.81 15.36,0 27.81,12.46 27.81,27.81 0,15.36 -12.46,27.81 -27.81,27.81z"/>
    <circle id="XMLID_83_" class="fil0" cx="133.59" cy="42.82" r="10.91"/>
   </g>
  </g>
 </g>
</svg>
