<?xml version="1.0" encoding="UTF-8"?>
<!DOCTYPE svg PUBLIC "-//W3C//DTD SVG 1.1//EN" "http://www.w3.org/Graphics/SVG/1.1/DTD/svg11.dtd">
<!-- Creator: CorelDRAW 2020 (64 Bit) -->
<svg xmlns="http://www.w3.org/2000/svg" xml:space="preserve" width="2.6446mm" height="2.6465mm" version="1.1" style="shape-rendering:geometricPrecision; text-rendering:geometricPrecision; image-rendering:optimizeQuality; fill-rule:evenodd; clip-rule:evenodd"
viewBox="0 0 53.64 53.68"
 xmlns:xlink="http://www.w3.org/1999/xlink"
 xmlns:xodm="http://www.corel.com/coreldraw/odm/2003">
 <defs>
  <style type="text/css">
   <![CDATA[
    .fil0 {fill:#767676;fill-rule:nonzero}
   ]]>
  </style>
 </defs>
 <g id="Camada_x0020_1">
  <metadata id="CorelCorpID_0Corel-Layer"/>
  <path class="fil0" d="M45.62 7.79c-2.46,-2.48 -5.39,-4.44 -8.61,-5.78 -3.23,-1.34 -6.69,-2.02 -10.18,-2.01 -4.67,0.01 -9.25,1.24 -13.29,3.57 -4.04,2.33 -7.4,5.69 -9.74,9.73 -2.34,4.04 -3.57,8.62 -3.58,13.29 -0.01,4.67 1.21,9.26 3.53,13.3l-3.76 13.79 14.09 -3.69c3.89,2.16 8.26,3.32 12.72,3.35 7.08,0 13.87,-2.8 18.89,-7.78 5.03,-4.98 7.88,-11.75 7.94,-18.83 -0.02,-3.53 -0.74,-7.02 -2.12,-10.28 -1.38,-3.25 -3.38,-6.2 -5.9,-8.68zm-18.79 40.96c-3.97,0 -7.86,-1.06 -11.27,-3.09l-0.81 -0.5 -8.35 2.21 2.21 -8.15 -0.54 -0.84c-2.85,-4.61 -3.92,-10.1 -2.99,-15.44 0.92,-5.34 3.78,-10.16 8.01,-13.53 4.24,-3.38 9.57,-5.09 14.98,-4.8 5.41,0.29 10.53,2.55 14.39,6.36 4.21,4.12 6.62,9.74 6.71,15.63 -0.05,5.89 -2.43,11.52 -6.62,15.67 -4.18,4.15 -9.84,6.47 -15.73,6.47zm12.11 -16.57c-0.67,-0.34 -3.92,-1.95 -4.53,-2.15 -0.6,-0.2 -1.07,-0.33 -1.51,0.34 -0.66,0.9 -1.36,1.76 -2.11,2.58 -0.37,0.47 -0.77,0.5 -1.44,0 -3.83,-1.51 -7.01,-4.3 -9.02,-7.88 -0.71,-1.17 0.67,-1.11 1.95,-3.62 0.09,-0.18 0.14,-0.38 0.14,-0.59 0,-0.2 -0.05,-0.41 -0.14,-0.59 0,-0.33 -1.51,-3.62 -2.05,-4.93 -0.54,-1.31 -1.07,-1.11 -1.51,-1.14l-1.31 0c-0.34,0 -0.67,0.08 -0.98,0.23 -0.31,0.14 -0.58,0.35 -0.8,0.61 -0.75,0.73 -1.34,1.62 -1.72,2.59 -0.38,0.98 -0.55,2.03 -0.49,3.08 0.21,2.51 1.16,4.9 2.72,6.88 2.86,4.28 6.78,7.75 11.37,10.06 2.41,1.41 5.21,2 7.98,1.68 0.92,-0.18 1.8,-0.56 2.57,-1.1 0.77,-0.54 1.41,-1.24 1.89,-2.05 0.45,-0.99 0.59,-2.09 0.4,-3.15 -0.3,-0.33 -0.74,-0.5 -1.41,-0.84z"/>
 </g>
</svg>
