<?xml version="1.0" encoding="UTF-8"?>
<!DOCTYPE svg PUBLIC "-//W3C//DTD SVG 1.1//EN" "http://www.w3.org/Graphics/SVG/1.1/DTD/svg11.dtd">
<!-- Creator: CorelDRAW 2020 (64 Bit) -->
<svg xmlns="http://www.w3.org/2000/svg" xml:space="preserve" width="2.6396mm" height="1.8678mm" version="1.1" style="shape-rendering:geometricPrecision; text-rendering:geometricPrecision; image-rendering:optimizeQuality; fill-rule:evenodd; clip-rule:evenodd"
viewBox="0 0 156.06 110.43"
 xmlns:xlink="http://www.w3.org/1999/xlink"
 xmlns:xodm="http://www.corel.com/coreldraw/odm/2003">
 <defs>
  <style type="text/css">
   <![CDATA[
    .fil0 {fill:#767676;fill-rule:nonzero}
   ]]>
  </style>
 </defs>
 <g id="Camada_x0020_1">
  <metadata id="CorelCorpID_0Corel-Layer"/>
  <g id="_731934080">
   <g>
    <path class="fil0" d="M123.65 0l-91.24 0c-17.9,0 -32.41,14.51 -32.41,32.41l0 45.61c0,17.9 14.51,32.41 32.41,32.41l91.24 0c17.9,0 32.41,-14.51 32.41,-32.41l0 -45.61c0,-17.9 -14.51,-32.41 -32.41,-32.41zm-21.92 57.43l-42.67 20.36c-1.14,0.54 -2.45,-0.29 -2.45,-1.55l0 -41.98c0,-1.28 1.35,-2.1 2.49,-1.53l42.67 21.62c1.27,0.64 1.25,2.47 -0.04,3.07z"/>
   </g>
  </g>
 </g>
</svg>
